<?xml version="1.0" encoding="UTF-8"?>
<!DOCTYPE svg PUBLIC "-//W3C//DTD SVG 1.1//EN" "http://www.w3.org/Graphics/SVG/1.1/DTD/svg11.dtd">
<svg xmlns="http://www.w3.org/2000/svg" version="1.1" width="299px" height="255px" style="shape-rendering:geometricPrecision; text-rendering:geometricPrecision; image-rendering:optimizeQuality; fill-rule:evenodd; clip-rule:evenodd" xmlns:xlink="http://www.w3.org/1999/xlink">
<g><path style="opacity:1" fill="#fdfdfd" d="M -0.5,-0.5 C 99.1667,-0.5 198.833,-0.5 298.5,-0.5C 298.5,84.5 298.5,169.5 298.5,254.5C 198.833,254.5 99.1667,254.5 -0.5,254.5C -0.5,169.5 -0.5,84.5 -0.5,-0.5 Z"/></g>
<g><path style="opacity:1" fill="#231f1d" d="M 227.5,40.5 C 226.603,41.5981 225.77,41.5981 225,40.5C 224.885,37.9918 223.885,35.9918 222,34.5C 218.725,37.3551 215.058,38.0218 211,36.5C 210.055,36.9054 209.388,37.572 209,38.5C 208.809,40.7078 208.309,42.7078 207.5,44.5C 206.253,30.2424 212.253,25.7424 225.5,31C 226.304,34.1174 226.97,37.284 227.5,40.5 Z"/></g>
<g><path style="opacity:1" fill="#b98f74" d="M 227.5,40.5 C 226.649,45.906 226.649,51.2393 227.5,56.5C 227.084,58.7525 225.751,60.2525 223.5,61C 220.304,61.8045 217.304,61.6378 214.5,60.5C 221.093,61.4873 224.593,58.8207 225,52.5C 223.233,54.718 221.067,56.3847 218.5,57.5C 216.361,56.0229 214.028,55.0229 211.5,54.5C 210.833,54.1667 210.167,53.8333 209.5,53.5C 208.677,50.5394 208.01,47.5394 207.5,44.5C 208.309,42.7078 208.809,40.7078 209,38.5C 209.388,37.572 210.055,36.9054 211,36.5C 215.058,38.0218 218.725,37.3551 222,34.5C 223.885,35.9918 224.885,37.9918 225,40.5C 225.77,41.5981 226.603,41.5981 227.5,40.5 Z"/></g>
<g><path style="opacity:1" fill="#a87e70" d="M 124.5,40.5 C 120.899,39.5367 117.233,38.87 113.5,38.5C 113.611,37.8826 113.944,37.3826 114.5,37C 118.765,35.7549 122.098,36.9215 124.5,40.5 Z"/></g>
<g><path style="opacity:1" fill="#29211e" d="M 177.5,40.5 C 173.491,40.8583 169.491,41.3583 165.5,42C 164.877,44.6073 164.21,47.1073 163.5,49.5C 162.327,40.8416 165.994,37.0082 174.5,38C 175.942,38.3768 176.942,39.2101 177.5,40.5 Z"/></g>
<g><path style="opacity:1" fill="#ecc4a7" d="M 113.5,38.5 C 117.233,38.87 120.899,39.5367 124.5,40.5C 125.117,40.6107 125.617,40.944 126,41.5C 126.667,44.8333 126.667,48.1667 126,51.5C 124.55,53.7571 123.383,56.0905 122.5,58.5C 120.732,60.5078 119.066,62.6744 117.5,65C 112.509,66.1798 109.509,64.3464 108.5,59.5C 108.692,55.3639 108.026,51.3639 106.5,47.5C 106.62,45.4115 107.62,44.0782 109.5,43.5C 109.351,44.552 109.517,45.552 110,46.5C 111.456,43.9676 112.623,41.3009 113.5,38.5 Z"/></g>
<g><path style="opacity:1" fill="#262423" d="M 61.5,46.5 C 58.8689,41.8087 54.8689,40.3087 49.5,42C 48.5,43.6667 47.5,45.3333 46.5,47C 45.2068,47.49 43.8734,47.6567 42.5,47.5C 44.6396,37.8204 49.9729,35.3204 58.5,40C 60.4506,41.7342 61.4506,43.9009 61.5,46.5 Z"/></g>
<g><path style="opacity:1" fill="#a8826a" d="M 113.5,38.5 C 112.623,41.3009 111.456,43.9676 110,46.5C 109.517,45.552 109.351,44.552 109.5,43.5C 110.08,41.2512 111.413,39.5846 113.5,38.5 Z"/></g>
<g><path style="opacity:1" fill="#f7e5af" d="M 90.5,58.5 C 87.1393,57.316 84.1393,55.4827 81.5,53C 79.1913,52.2438 77.1913,52.7438 75.5,54.5C 74.6872,58.1616 74.0206,61.8282 73.5,65.5C 67.7682,59.119 68.4349,53.2857 75.5,48C 81.5596,47.3848 86.393,49.5514 90,54.5C 90.49,55.7932 90.6567,57.1266 90.5,58.5 Z"/></g>
<g><path style="opacity:1" fill="#231f1e" d="M 255.5,70.5 C 257.626,64.6319 256.626,59.4652 252.5,55C 248.448,52.8107 244.948,53.3107 242,56.5C 239.899,60.8743 239.065,65.5409 239.5,70.5C 242.925,70.3668 243.258,71.0335 240.5,72.5C 239.178,72.67 238.011,72.3366 237,71.5C 236.294,67.1132 236.46,62.7799 237.5,58.5C 240.146,45.6021 246.98,42.9354 258,50.5C 261.178,55.5 262.344,60.8333 261.5,66.5C 259.21,67.4671 257.21,68.8004 255.5,70.5 Z"/></g>
<g><path style="opacity:1" fill="#9d6647" d="M 177.5,40.5 C 179.694,42.2214 180.861,44.5547 181,47.5C 181.805,50.6965 181.638,53.6965 180.5,56.5C 179.053,57.6222 178.053,59.1222 177.5,61C 175.5,61.6667 173.5,61.6667 171.5,61C 169.963,59.2927 168.296,57.7927 166.5,56.5C 163.908,54.9639 162.908,52.6305 163.5,49.5C 164.21,47.1073 164.877,44.6073 165.5,42C 169.491,41.3583 173.491,40.8583 177.5,40.5 Z"/></g>
<g><path style="opacity:1" fill="#261c1a" d="M 214.5,60.5 C 213.877,58.2895 212.877,56.2895 211.5,54.5C 214.028,55.0229 216.361,56.0229 218.5,57.5C 221.067,56.3847 223.233,54.718 225,52.5C 224.593,58.8207 221.093,61.4873 214.5,60.5 Z"/></g>
<g><path style="opacity:1" fill="#e8bfa1" d="M 255.5,70.5 C 252.891,72.0452 252.891,73.7118 255.5,75.5C 252.346,77.0259 249.013,77.6925 245.5,77.5C 245.657,76.1266 245.49,74.7932 245,73.5C 244.722,74.4158 244.222,75.0825 243.5,75.5C 243.5,73.5 242.5,72.5 240.5,72.5C 243.258,71.0335 242.925,70.3668 239.5,70.5C 239.065,65.5409 239.899,60.8743 242,56.5C 244.948,53.3107 248.448,52.8107 252.5,55C 256.626,59.4652 257.626,64.6319 255.5,70.5 Z"/></g>
<g><path style="opacity:1" fill="#2f1c17" d="M 166.5,56.5 C 168.296,57.7927 169.963,59.2927 171.5,61C 173.5,61.6667 175.5,61.6667 177.5,61C 178.053,59.1222 179.053,57.6222 180.5,56.5C 180.5,57.5 180.5,58.5 180.5,59.5C 177.76,63.4376 174.093,64.4376 169.5,62.5C 169.5,61.8333 169.167,61.5 168.5,61.5C 167.559,59.9505 166.893,58.2838 166.5,56.5 Z"/></g>
<g><path style="opacity:1" fill="#eed6c0" d="M 61.5,46.5 C 60.8681,53.7635 58.5348,60.4301 54.5,66.5C 54.8627,67.1835 55.1961,67.8501 55.5,68.5C 56.9066,73.8287 55.5732,78.4954 51.5,82.5C 48.2055,76.742 44.5388,71.242 40.5,66C 39.2068,65.51 37.8734,65.3433 36.5,65.5C 37.9516,64.6981 39.6183,64.1981 41.5,64C 42.3567,63.3109 43.0233,62.4776 43.5,61.5C 43.7167,57.6694 43.05,53.8361 41.5,50C 41.7432,49.0979 42.0766,48.2646 42.5,47.5C 43.8734,47.6567 45.2068,47.49 46.5,47C 47.5,45.3333 48.5,43.6667 49.5,42C 54.8689,40.3087 58.8689,41.8087 61.5,46.5 Z"/></g>
<g><path style="opacity:1" fill="#e5cbb7" d="M 208.5,56.5 C 210.308,57.9179 210.975,59.9179 210.5,62.5C 207.169,62.9819 204.503,61.9819 202.5,59.5C 204.181,57.9925 206.181,56.9925 208.5,56.5 Z"/></g>
<g><path style="opacity:1" fill="#efeeeb" d="M 209.5,53.5 C 210.167,53.8333 210.833,54.1667 211.5,54.5C 212.877,56.2895 213.877,58.2895 214.5,60.5C 217.304,61.6378 220.304,61.8045 223.5,61C 225.751,60.2525 227.084,58.7525 227.5,56.5C 230.025,57.0482 232.359,58.0482 234.5,59.5C 235.417,58.8728 236.417,58.5394 237.5,58.5C 236.46,62.7799 236.294,67.1132 237,71.5C 238.011,72.3366 239.178,72.67 240.5,72.5C 242.5,72.5 243.5,73.5 243.5,75.5C 242.833,75.5 242.5,75.8333 242.5,76.5C 239.274,84.1026 236.608,91.9359 234.5,100C 235.394,105.016 236.894,109.85 239,114.5C 239.687,120.204 239.521,125.87 238.5,131.5C 237.566,132.568 237.232,133.901 237.5,135.5C 236.833,135.5 236.167,135.5 235.5,135.5C 235.5,131.833 235.5,128.167 235.5,124.5C 222.732,127.435 210.066,127.101 197.5,123.5C 196.702,123.957 196.369,124.624 196.5,125.5C 195.414,125.38 194.747,124.713 194.5,123.5C 196.399,119.098 195.233,115.765 191,113.5C 190.019,110.216 190.853,107.549 193.5,105.5C 194.858,99.4002 196.525,93.4002 198.5,87.5C 199.167,87.8333 199.833,88.1667 200.5,88.5C 200.833,86.8333 201.167,85.1667 201.5,83.5C 200.912,78.7378 199.912,74.0711 198.5,69.5C 200.002,66.33 201.336,62.9967 202.5,59.5C 204.503,61.9819 207.169,62.9819 210.5,62.5C 210.975,59.9179 210.308,57.9179 208.5,56.5C 209.11,55.609 209.443,54.609 209.5,53.5 Z"/></g>
<g><path style="opacity:1" fill="#86583a" d="M 180.5,59.5 C 180.328,60.4916 180.662,61.1583 181.5,61.5C 181.586,62.4959 181.252,63.3292 180.5,64C 177.262,65.3677 173.928,65.7011 170.5,65C 169.748,64.3292 169.414,63.4959 169.5,62.5C 174.093,64.4376 177.76,63.4376 180.5,59.5 Z"/></g>
<g><path style="opacity:1" fill="#ced5d8" d="M 168.5,61.5 C 169.167,61.5 169.5,61.8333 169.5,62.5C 169.414,63.4959 169.748,64.3292 170.5,65C 173.928,65.7011 177.262,65.3677 180.5,64C 181.252,63.3292 181.586,62.4959 181.5,61.5C 185.846,61.3343 190.179,61.501 194.5,62C 197.024,63.883 198.358,66.383 198.5,69.5C 199.912,74.0711 200.912,78.7378 201.5,83.5C 201.167,85.1667 200.833,86.8333 200.5,88.5C 199.833,88.1667 199.167,87.8333 198.5,87.5C 196.525,93.4002 194.858,99.4002 193.5,105.5C 190.853,107.549 190.019,110.216 191,113.5C 195.233,115.765 196.399,119.098 194.5,123.5C 194.747,124.713 195.414,125.38 196.5,125.5C 196.663,127.857 196.497,130.19 196,132.5C 195.722,131.584 195.222,130.918 194.5,130.5C 194.5,129.167 194.5,127.833 194.5,126.5C 183.879,127.828 173.212,128.495 162.5,128.5C 162.134,127.305 161.301,126.639 160,126.5C 156.895,127.367 153.728,127.701 150.5,127.5C 153.507,125.825 156.84,125.159 160.5,125.5C 160.5,122.167 160.5,118.833 160.5,115.5C 161.708,110.542 162.708,105.542 163.5,100.5C 164.156,99.3784 164.489,98.0451 164.5,96.5C 162.982,91.3626 162.149,86.0293 162,80.5C 159.874,78.6234 157.374,77.6234 154.5,77.5C 154.481,75.9397 154.148,74.4397 153.5,73C 154.586,70.2481 156.086,67.7481 158,65.5C 160.74,64.7178 163.574,64.2178 166.5,64C 167.756,63.5831 168.423,62.7498 168.5,61.5 Z"/></g>
<g><path style="opacity:1" fill="#fcf5d6" d="M 122.5,58.5 C 122.5,59.5 122.5,60.5 122.5,61.5C 124.144,61.2865 125.644,61.6198 127,62.5C 127.377,61.0577 128.21,60.0577 129.5,59.5C 129.252,63.7569 128.252,67.7569 126.5,71.5C 125.342,76.1163 127.008,78.783 131.5,79.5C 128.867,87.155 129.034,94.8216 132,102.5C 132.499,108.491 132.666,114.491 132.5,120.5C 127.245,126.453 120.579,129.12 112.5,128.5C 112.408,121.992 111.742,121.992 110.5,128.5C 105.748,127.807 101.414,126.14 97.5,123.5C 93.8016,116.749 92.8016,109.749 94.5,102.5C 95.1174,102.611 95.6174,102.944 96,103.5C 97.6927,113.954 98.8593,113.62 99.5,102.5C 99.4184,99.0202 98.7518,95.6869 97.5,92.5C 97.8242,88.4454 97.4909,84.4454 96.5,80.5C 95.4822,79.8075 94.4822,79.1408 93.5,78.5C 92.828,77.7326 91.9947,77.0659 91,76.5C 90.2266,71.7481 90.3932,67.0815 91.5,62.5C 97.4594,63.3398 103.126,62.3398 108.5,59.5C 109.509,64.3464 112.509,66.1798 117.5,65C 119.066,62.6744 120.732,60.5078 122.5,58.5 Z"/></g>
<g><path style="opacity:1" fill="#eecda5" d="M 90.5,58.5 C 90.8333,59.8333 91.1667,61.1667 91.5,62.5C 90.3932,67.0815 90.2266,71.7481 91,76.5C 91.9947,77.0659 92.828,77.7326 93.5,78.5C 86.0088,82.6116 81.0088,80.6116 78.5,72.5C 74.8333,72.5 71.1667,72.5 67.5,72.5C 70.977,71.6773 74.6437,71.1773 78.5,71C 75.887,69.8935 74.2203,68.0601 73.5,65.5C 74.0206,61.8282 74.6872,58.1616 75.5,54.5C 77.1913,52.7438 79.1913,52.2438 81.5,53C 84.1393,55.4827 87.1393,57.316 90.5,58.5 Z"/></g>
<g><path style="opacity:1" fill="#e2bf70" d="M 154.5,77.5 C 154.5,82.1667 154.5,86.8333 154.5,91.5C 154.167,91.5 153.833,91.5 153.5,91.5C 153.338,82.1925 151.671,73.1925 148.5,64.5C 147.675,68.1224 147.175,71.789 147,75.5C 146.451,77.7596 145.284,79.4262 143.5,80.5C 144.038,78.8828 144.371,77.2161 144.5,75.5C 145.117,75.3893 145.617,75.056 146,74.5C 147.166,68.7776 146.333,63.4443 143.5,58.5C 140.636,55.8975 137.803,55.8975 135,58.5C 132.928,62.5557 131.761,66.889 131.5,71.5C 133.179,71.2852 134.179,71.9519 134.5,73.5C 134.785,75.288 134.452,76.9547 133.5,78.5C 132.3,77.4688 130.966,76.6355 129.5,76C 129.085,73.9737 128.085,72.4737 126.5,71.5C 128.252,67.7569 129.252,63.7569 129.5,59.5C 135.361,52.0456 141.527,51.7122 148,58.5C 150.22,64.9118 152.386,71.2451 154.5,77.5 Z"/></g>
<g><path style="opacity:1" fill="#fadebf" d="M 144.5,75.5 C 140.758,77.0183 137.425,76.3516 134.5,73.5C 134.179,71.9519 133.179,71.2852 131.5,71.5C 131.761,66.889 132.928,62.5557 135,58.5C 137.803,55.8975 140.636,55.8975 143.5,58.5C 146.333,63.4443 147.166,68.7776 146,74.5C 145.617,75.056 145.117,75.3893 144.5,75.5 Z"/></g>
<g><path style="opacity:1" fill="#222020" d="M 67.5,72.5 C 71.1667,72.5 74.8333,72.5 78.5,72.5C 81.0088,80.6116 86.0088,82.6116 93.5,78.5C 94.4822,79.1408 95.4822,79.8075 96.5,80.5C 97.4909,84.4454 97.8242,88.4454 97.5,92.5C 96.0073,95.5832 95.0073,98.9165 94.5,102.5C 92.8016,109.749 93.8016,116.749 97.5,123.5C 97.5,124.167 97.5,124.833 97.5,125.5C 86.8259,126.773 76.1592,126.773 65.5,125.5C 64.8826,125.389 64.3826,125.056 64,124.5C 63.3354,117.805 63.502,111.138 64.5,104.5C 65.9457,98.7263 66.6123,92.7263 66.5,86.5C 67.8674,82.3922 67.5341,78.3922 65.5,74.5C 65.8333,73.5 66.5,72.8333 67.5,72.5 Z"/></g>
<g><path style="opacity:1" fill="#c29a82" d="M 255.5,70.5 C 255.5,71.5 255.5,72.5 255.5,73.5C 257.553,73.4021 259.22,74.0687 260.5,75.5C 254.509,79.8482 248.509,80.1815 242.5,76.5C 242.5,75.8333 242.833,75.5 243.5,75.5C 244.222,75.0825 244.722,74.4158 245,73.5C 245.49,74.7932 245.657,76.1266 245.5,77.5C 249.013,77.6925 252.346,77.0259 255.5,75.5C 252.891,73.7118 252.891,72.0452 255.5,70.5 Z"/></g>
<g><path style="opacity:1" fill="#5d8e7c" d="M 36.5,65.5 C 37.8734,65.3433 39.2068,65.51 40.5,66C 44.5388,71.242 48.2055,76.742 51.5,82.5C 55.5732,78.4954 56.9066,73.8287 55.5,68.5C 58.8611,70.5113 62.1944,72.5113 65.5,74.5C 67.5341,78.3922 67.8674,82.3922 66.5,86.5C 65.8826,86.6107 65.3826,86.944 65,87.5C 64.7188,92.2154 64.2188,96.8821 63.5,101.5C 62.0629,108.743 61.3963,116.076 61.5,123.5C 57.2488,123.659 52.9155,122.993 48.5,121.5C 43.6514,121.912 38.9848,122.579 34.5,123.5C 30.103,120.432 26.7697,116.432 24.5,111.5C 25.8036,110.013 26.9702,108.346 28,106.5C 28.7902,100.085 28.6235,93.752 27.5,87.5C 27.6567,86.1266 27.49,84.7932 27,83.5C 23.8883,80.8991 21.3883,77.8991 19.5,74.5C 21.6281,71.8697 23.9614,69.3697 26.5,67C 29.7568,65.9571 33.0901,65.4571 36.5,65.5 Z"/></g>
<g><path style="opacity:1" fill="#f3cca2" d="M 126.5,71.5 C 128.085,72.4737 129.085,73.9737 129.5,76C 130.966,76.6355 132.3,77.4688 133.5,78.5C 134.452,76.9547 134.785,75.288 134.5,73.5C 137.425,76.3516 140.758,77.0183 144.5,75.5C 144.371,77.2161 144.038,78.8828 143.5,80.5C 142.513,85.3054 142.179,90.3054 142.5,95.5C 139.227,95.5294 138.56,94.1961 140.5,91.5C 139.343,87.3636 138.01,83.3636 136.5,79.5C 134.833,79.5 133.167,79.5 131.5,79.5C 127.008,78.783 125.342,76.1163 126.5,71.5 Z"/></g>
<g><path style="opacity:1" fill="#e7bd60" d="M 153.5,91.5 C 152.206,93.3284 151.206,95.3284 150.5,97.5C 147.833,96.8333 145.167,96.1667 142.5,95.5C 142.179,90.3054 142.513,85.3054 143.5,80.5C 145.284,79.4262 146.451,77.7596 147,75.5C 147.175,71.789 147.675,68.1224 148.5,64.5C 151.671,73.1925 153.338,82.1925 153.5,91.5 Z"/></g>
<g><path style="opacity:1" fill="#313130" d="M 260.5,75.5 C 263.833,77.1667 267.167,78.8333 270.5,80.5C 270.611,81.1174 270.944,81.6174 271.5,82C 266.906,84.1243 265.906,87.1243 268.5,91C 268.043,91.414 267.709,91.914 267.5,92.5C 270.37,94.2302 273.37,95.5635 276.5,96.5C 276.5,97.5 276.5,98.5 276.5,99.5C 272.876,99.9851 269.543,100.652 266.5,101.5C 269.631,109.881 271.298,118.547 271.5,127.5C 271.5,130.5 271.5,133.5 271.5,136.5C 260.432,138.036 249.432,137.703 238.5,135.5C 238.5,134.167 238.5,132.833 238.5,131.5C 239.521,125.87 239.687,120.204 239,114.5C 236.894,109.85 235.394,105.016 234.5,100C 236.608,91.9359 239.274,84.1026 242.5,76.5C 248.509,80.1815 254.509,79.8482 260.5,75.5 Z"/></g>
<g><path style="opacity:1" fill="#f5dac4" d="M 154.5,77.5 C 157.374,77.6234 159.874,78.6234 162,80.5C 162.149,86.0293 162.982,91.3626 164.5,96.5C 164.489,98.0451 164.156,99.3784 163.5,100.5C 161.833,99.1667 160.167,97.8333 158.5,96.5C 158.54,93.5755 157.707,90.9088 156,88.5C 155.768,89.7375 155.268,90.7375 154.5,91.5C 154.5,86.8333 154.5,82.1667 154.5,77.5 Z"/></g>
<g><path style="opacity:1" fill="#b78e75" d="M 270.5,80.5 C 273.272,80.22 275.772,80.8866 278,82.5C 278.762,86.5874 278.596,90.5874 277.5,94.5C 276.662,94.8417 276.328,95.5084 276.5,96.5C 273.37,95.5635 270.37,94.2302 267.5,92.5C 267.709,91.914 268.043,91.414 268.5,91C 265.906,87.1243 266.906,84.1243 271.5,82C 270.944,81.6174 270.611,81.1174 270.5,80.5 Z"/></g>
<g><path style="opacity:1" fill="#f9fbf8" d="M 27.5,87.5 C 28.6235,93.752 28.7902,100.085 28,106.5C 26.9702,108.346 25.8036,110.013 24.5,111.5C 20.935,107.559 18.6017,102.893 17.5,97.5C 19.1033,94.7204 20.9366,92.0538 23,89.5C 24.3297,88.4178 25.8297,87.7512 27.5,87.5 Z"/></g>
<g><path style="opacity:1" fill="#a9b29f" d="M 66.5,86.5 C 66.6123,92.7263 65.9457,98.7263 64.5,104.5C 64.7373,103.209 64.404,102.209 63.5,101.5C 64.2188,96.8821 64.7188,92.2154 65,87.5C 65.3826,86.944 65.8826,86.6107 66.5,86.5 Z"/></g>
<g><path style="opacity:1" fill="#e6a9a2" d="M 131.5,79.5 C 133.167,79.5 134.833,79.5 136.5,79.5C 138.01,83.3636 139.343,87.3636 140.5,91.5C 138.56,94.1961 139.227,95.5294 142.5,95.5C 145.167,96.1667 147.833,96.8333 150.5,97.5C 151.206,95.3284 152.206,93.3284 153.5,91.5C 153.833,91.5 154.167,91.5 154.5,91.5C 155.268,90.7375 155.768,89.7375 156,88.5C 157.707,90.9088 158.54,93.5755 158.5,96.5C 158.334,101.511 158.501,106.511 159,111.5C 159.21,113.058 159.71,114.391 160.5,115.5C 160.5,118.833 160.5,122.167 160.5,125.5C 156.84,125.159 153.507,125.825 150.5,127.5C 144.5,127.5 138.5,127.5 132.5,127.5C 132.5,125.167 132.5,122.833 132.5,120.5C 132.666,114.491 132.499,108.491 132,102.5C 129.034,94.8216 128.867,87.155 131.5,79.5 Z"/></g>
<g><path style="opacity:1" fill="#f5dec8" d="M 19.5,74.5 C 21.3883,77.8991 23.8883,80.8991 27,83.5C 27.49,84.7932 27.6567,86.1266 27.5,87.5C 25.8297,87.7512 24.3297,88.4178 23,89.5C 20.9366,92.0538 19.1033,94.7204 17.5,97.5C 18.6017,102.893 20.935,107.559 24.5,111.5C 26.7697,116.432 30.103,120.432 34.5,123.5C 33.7211,125.927 32.5545,125.927 31,123.5C 30.51,124.793 30.3433,126.127 30.5,127.5C 25.2576,128.562 22.2576,126.562 21.5,121.5C 20.8717,118.91 19.705,116.577 18,114.5C 13.1433,109.348 9.64334,103.515 7.5,97C 7.67622,93.1525 8.84289,89.6525 11,86.5C 14.1144,82.5761 16.9478,78.5761 19.5,74.5 Z"/></g>
<g><path style="opacity:1" fill="#e2c098" d="M 97.5,92.5 C 98.7518,95.6869 99.4184,99.0202 99.5,102.5C 98.8593,113.62 97.6927,113.954 96,103.5C 95.6174,102.944 95.1174,102.611 94.5,102.5C 95.0073,98.9165 96.0073,95.5832 97.5,92.5 Z"/></g>
<g><path style="opacity:1" fill="#fbf6f2" d="M 158.5,96.5 C 160.167,97.8333 161.833,99.1667 163.5,100.5C 162.708,105.542 161.708,110.542 160.5,115.5C 159.71,114.391 159.21,113.058 159,111.5C 158.501,106.511 158.334,101.511 158.5,96.5 Z"/></g>
<g><path style="opacity:1" fill="#dcebea" d="M 63.5,101.5 C 64.404,102.209 64.7373,103.209 64.5,104.5C 63.502,111.138 63.3354,117.805 64,124.5C 64.3826,125.056 64.8826,125.389 65.5,125.5C 66.8021,130.933 66.8021,136.266 65.5,141.5C 64.7985,135.361 63.4652,129.361 61.5,123.5C 61.3963,116.076 62.0629,108.743 63.5,101.5 Z"/></g>
<g><path style="opacity:1" fill="#1a6685" d="M 21.5,121.5 C 22.2576,126.562 25.2576,128.562 30.5,127.5C 30.3433,126.127 30.51,124.793 31,123.5C 32.5545,125.927 33.7211,125.927 34.5,123.5C 38.9848,122.579 43.6514,121.912 48.5,121.5C 52.9155,122.993 57.2488,123.659 61.5,123.5C 63.4652,129.361 64.7985,135.361 65.5,141.5C 68.0297,150.678 69.6964,160.011 70.5,169.5C 70.5,170.167 70.5,170.833 70.5,171.5C 69.716,174.795 68.716,178.129 67.5,181.5C 65.3558,190.08 63.5225,198.747 62,207.5C 61.2642,210.592 61.4309,213.592 62.5,216.5C 54.7052,217.147 47.0385,218.147 39.5,219.5C 34.7142,200.118 31.8809,180.451 31,160.5C 28.9187,151.504 25.9187,142.838 22,134.5C 21.501,130.179 21.3343,125.846 21.5,121.5 Z"/></g>
<g><path style="opacity:1" fill="#656c56" d="M 235.5,135.5 C 233.761,147.198 231.761,158.865 229.5,170.5C 229.88,172.659 230.213,174.826 230.5,177C 229.577,181.858 228.577,186.691 227.5,191.5C 227.923,194.657 228.257,197.824 228.5,201C 228.519,204.719 227.852,208.219 226.5,211.5C 222.5,211.5 218.5,211.5 214.5,211.5C 213.874,206.574 214.874,202.074 217.5,198C 216.579,192.876 215.912,187.709 215.5,182.5C 216.732,169.833 216.732,157.167 215.5,144.5C 211.425,151.598 209.258,159.264 209,167.5C 208.667,176.167 208.333,184.833 208,193.5C 206.247,197.694 206.414,201.86 208.5,206C 207.923,208.137 207.59,210.304 207.5,212.5C 206.596,211.791 206.263,210.791 206.5,209.5C 203.833,209.5 201.167,209.5 198.5,209.5C 196.363,205.007 195.03,200.34 194.5,195.5C 194.608,190.13 194.275,184.797 193.5,179.5C 194.222,179.918 194.722,180.584 195,181.5C 197.151,169.646 196.984,157.979 194.5,146.5C 195.761,141.175 195.761,135.842 194.5,130.5C 195.222,130.918 195.722,131.584 196,132.5C 196.497,130.19 196.663,127.857 196.5,125.5C 196.369,124.624 196.702,123.957 197.5,123.5C 210.066,127.101 222.732,127.435 235.5,124.5C 235.5,128.167 235.5,131.833 235.5,135.5 Z"/></g>
<g><path style="opacity:1" fill="#735c45" d="M 132.5,120.5 C 132.5,122.833 132.5,125.167 132.5,127.5C 131.671,134.009 131.005,140.676 130.5,147.5C 127.604,166.925 124.938,186.258 122.5,205.5C 119.833,205.5 117.167,205.5 114.5,205.5C 115.766,187.178 115.766,168.845 114.5,150.5C 112.691,155.733 111.191,161.066 110,166.5C 109.289,179.519 109.455,192.519 110.5,205.5C 108.473,205.338 106.473,205.505 104.5,206C 103.944,206.383 103.611,206.883 103.5,207.5C 101.69,202.404 100.19,197.071 99,191.5C 98.2364,180.813 98.4031,170.146 99.5,159.5C 99.0682,155.65 98.4016,151.983 97.5,148.5C 98.6652,140.68 98.6652,133.013 97.5,125.5C 97.5,124.833 97.5,124.167 97.5,123.5C 101.414,126.14 105.748,127.807 110.5,128.5C 111.742,121.992 112.408,121.992 112.5,128.5C 120.579,129.12 127.245,126.453 132.5,120.5 Z"/></g>
<g><path style="opacity:1" fill="#b0d9dd" d="M 162.5,128.5 C 160.883,129.589 160.05,131.256 160,133.5C 159.501,138.155 159.334,142.821 159.5,147.5C 158.25,147.577 157.417,148.244 157,149.5C 155,154.833 153,160.167 151,165.5C 149.895,177.288 148.395,188.954 146.5,200.5C 146.5,200.833 146.5,201.167 146.5,201.5C 146.5,203.5 146.5,205.5 146.5,207.5C 143.39,208.088 140.39,208.755 137.5,209.5C 137.167,209.5 136.833,209.5 136.5,209.5C 138.38,191.701 137.546,174.034 134,156.5C 133.465,153.031 132.298,150.031 130.5,147.5C 131.005,140.676 131.671,134.009 132.5,127.5C 138.5,127.5 144.5,127.5 150.5,127.5C 153.728,127.701 156.895,127.367 160,126.5C 161.301,126.639 162.134,127.305 162.5,128.5 Z"/></g>
<g><path style="opacity:1" fill="#e8c2a8" d="M 277.5,94.5 C 277.767,107.169 278.1,119.836 278.5,132.5C 277.285,136.301 277.285,139.967 278.5,143.5C 278.665,146.85 278.498,150.183 278,153.5C 277.292,154.381 276.458,155.047 275.5,155.5C 274.167,155.5 272.833,155.5 271.5,155.5C 271.179,149.85 271.846,144.35 273.5,139C 273.108,134.978 272.442,131.145 271.5,127.5C 271.298,118.547 269.631,109.881 266.5,101.5C 269.543,100.652 272.876,99.9851 276.5,99.5C 276.5,98.5 276.5,97.5 276.5,96.5C 276.328,95.5084 276.662,94.8417 277.5,94.5 Z"/></g>
<g><path style="opacity:1" fill="#0e3d4e" d="M 194.5,130.5 C 195.761,135.842 195.761,141.175 194.5,146.5C 192.262,157.42 191.928,168.42 193.5,179.5C 194.275,184.797 194.608,190.13 194.5,195.5C 193.01,199.229 193.343,202.729 195.5,206C 194.934,206.995 194.267,207.828 193.5,208.5C 191.126,210.727 188.459,211.06 185.5,209.5C 184.778,209.082 184.278,208.416 184,207.5C 184.022,186.563 181.855,165.896 177.5,145.5C 174.469,151.816 172.635,158.483 172,165.5C 171.975,176.301 170.808,186.968 168.5,197.5C 168.694,200.611 169.361,203.611 170.5,206.5C 170.058,207.739 169.391,208.739 168.5,209.5C 165.771,208.47 163.104,208.47 160.5,209.5C 159.236,206.695 159.236,203.862 160.5,201C 159.183,196.22 158.183,191.387 157.5,186.5C 159.014,181.115 160.014,175.615 160.5,170C 159.772,162.516 159.438,155.016 159.5,147.5C 159.334,142.821 159.501,138.155 160,133.5C 160.05,131.256 160.883,129.589 162.5,128.5C 173.212,128.495 183.879,127.828 194.5,126.5C 194.5,127.833 194.5,129.167 194.5,130.5 Z"/></g>
<g><path style="opacity:1" fill="#a6a39b" d="M 278.5,132.5 C 279.833,136.167 279.833,139.833 278.5,143.5C 277.285,139.967 277.285,136.301 278.5,132.5 Z"/></g>
<g><path style="opacity:1" fill="#0c7c96" d="M 238.5,131.5 C 238.5,132.833 238.5,134.167 238.5,135.5C 249.432,137.703 260.432,138.036 271.5,136.5C 269.776,142.306 269.276,148.306 270,154.5C 270.333,155.833 270.667,157.167 271,158.5C 271.671,157.748 272.504,157.414 273.5,157.5C 269.785,163.676 267.285,170.343 266,177.5C 265.5,189.176 264.833,200.843 264,212.5C 262.803,215.089 261.803,217.756 261,220.5C 260.329,221.252 259.496,221.586 258.5,221.5C 255.785,219.877 252.785,219.21 249.5,219.5C 248.488,218.128 247.488,216.795 246.5,215.5C 243.771,216.53 241.104,216.53 238.5,215.5C 236.11,213.624 235.11,211.124 235.5,208C 236.803,195.714 238.803,183.547 241.5,171.5C 239.899,163.861 238.399,156.195 237,148.5C 236.232,144.08 236.398,139.747 237.5,135.5C 237.232,133.901 237.566,132.568 238.5,131.5 Z"/></g>
<g><path style="opacity:1" fill="#74acb4" d="M 65.5,125.5 C 76.1592,126.773 86.8259,126.773 97.5,125.5C 98.6652,133.013 98.6652,140.68 97.5,148.5C 96.2057,152.668 95.039,157.001 94,161.5C 93.2686,172.553 92.1019,183.553 90.5,194.5C 87.8333,194.5 85.1667,194.5 82.5,194.5C 83.4875,177.177 83.6542,159.844 83,142.5C 81.2331,152.669 80.0664,163.002 79.5,173.5C 78.507,181.984 78.1736,190.651 78.5,199.5C 75.8333,199.5 73.1667,199.5 70.5,199.5C 70.415,195.151 70.0816,190.818 69.5,186.5C 69.4439,184.36 68.7773,182.694 67.5,181.5C 68.716,178.129 69.716,174.795 70.5,171.5C 72.6282,172.629 74.9615,172.796 77.5,172C 75.559,170.097 73.2257,169.264 70.5,169.5C 69.6964,160.011 68.0297,150.678 65.5,141.5C 66.8021,136.266 66.8021,130.933 65.5,125.5 Z"/></g>
<g><path style="opacity:1" fill="#c5c0b1" d="M 271.5,127.5 C 272.442,131.145 273.108,134.978 273.5,139C 271.846,144.35 271.179,149.85 271.5,155.5C 272.833,155.5 274.167,155.5 275.5,155.5C 275.167,156.5 274.5,157.167 273.5,157.5C 272.504,157.414 271.671,157.748 271,158.5C 270.667,157.167 270.333,155.833 270,154.5C 269.276,148.306 269.776,142.306 271.5,136.5C 271.5,133.5 271.5,130.5 271.5,127.5 Z"/></g>
<g><path style="opacity:1" fill="#f3fafb" d="M 47.5,150.5 C 50.6297,157.261 53.6297,164.094 56.5,171C 54.0953,181.785 51.9287,192.619 50,203.5C 48.1823,196.965 47.0156,190.299 46.5,183.5C 46.1721,172.321 46.5054,161.321 47.5,150.5 Z"/></g>
<g><path style="opacity:1" fill="#f9f4ef" d="M 114.5,205.5 C 114.106,213.162 112.773,213.162 110.5,205.5C 109.455,192.519 109.289,179.519 110,166.5C 111.191,161.066 112.691,155.733 114.5,150.5C 115.766,168.845 115.766,187.178 114.5,205.5 Z"/></g>
<g><path style="opacity:1" fill="#eaf1ef" d="M 194.5,146.5 C 196.984,157.979 197.151,169.646 195,181.5C 194.722,180.584 194.222,179.918 193.5,179.5C 191.928,168.42 192.262,157.42 194.5,146.5 Z"/></g>
<g><path style="opacity:1" fill="#e1f8fa" d="M 70.5,169.5 C 73.2257,169.264 75.559,170.097 77.5,172C 74.9615,172.796 72.6282,172.629 70.5,171.5C 70.5,170.833 70.5,170.167 70.5,169.5 Z"/></g>
<g><path style="opacity:1" fill="#a9cfe1" d="M 47.5,150.5 C 46.5054,161.321 46.1721,172.321 46.5,183.5C 45.176,172.326 45.176,160.993 46.5,149.5C 47.1067,149.624 47.44,149.957 47.5,150.5 Z"/></g>
<g><path style="opacity:1" fill="#b1d8dc" d="M 82.5,194.5 C 85.1667,194.5 87.8333,194.5 90.5,194.5C 90.9465,197.01 90.2798,199.01 88.5,200.5C 86.1137,200.259 84.1137,200.925 82.5,202.5C 82.5,199.833 82.5,197.167 82.5,194.5 Z"/></g>
<g><path style="opacity:1" fill="#b6d2d7" d="M 79.5,173.5 C 79.8099,184.581 79.4766,195.581 78.5,206.5C 76.0504,206.298 73.717,206.631 71.5,207.5C 70.7347,204.904 70.4013,202.237 70.5,199.5C 73.1667,199.5 75.8333,199.5 78.5,199.5C 78.1736,190.651 78.507,181.984 79.5,173.5 Z"/></g>
<g><path style="opacity:1" fill="#dfe0db" d="M 194.5,195.5 C 195.03,200.34 196.363,205.007 198.5,209.5C 198.795,211.735 198.461,213.735 197.5,215.5C 195.412,213.664 194.079,211.331 193.5,208.5C 194.267,207.828 194.934,206.995 195.5,206C 193.343,202.729 193.01,199.229 194.5,195.5 Z"/></g>
<g><path style="opacity:1" fill="#494241" d="M 78.5,206.5 C 78.7239,208.787 79.3906,210.953 80.5,213C 79.1324,215.568 79.4658,217.901 81.5,220C 81.0946,220.945 80.428,221.612 79.5,222C 76.854,222.497 74.1873,222.664 71.5,222.5C 72.0328,217.105 72.0328,212.105 71.5,207.5C 73.717,206.631 76.0504,206.298 78.5,206.5 Z"/></g>
<g><path style="opacity:1" fill="#f3d085" d="M 146.5,201.5 C 147.5,201.5 148.5,201.5 149.5,201.5C 149.5,205.5 149.5,209.5 149.5,213.5C 148.5,213.5 147.5,213.5 146.5,213.5C 146.5,211.5 146.5,209.5 146.5,207.5C 146.5,205.5 146.5,203.5 146.5,201.5 Z"/></g>
<g><path style="opacity:1" fill="#44403e" d="M 88.5,200.5 C 88.9655,204.962 89.9655,209.295 91.5,213.5C 90.0844,217.123 87.5844,218.123 84,216.5C 83.1706,211.863 82.6706,207.196 82.5,202.5C 84.1137,200.925 86.1137,200.259 88.5,200.5 Z"/></g>
<g><path style="opacity:1" fill="#a16c48" d="M 198.5,209.5 C 201.167,209.5 203.833,209.5 206.5,209.5C 206.263,210.791 206.596,211.791 207.5,212.5C 213.978,222.362 211.645,225.029 200.5,220.5C 199.752,218.668 198.752,217.001 197.5,215.5C 198.461,213.735 198.795,211.735 198.5,209.5 Z"/></g>
<g><path style="opacity:1" fill="#f9d37c" d="M 136.5,209.5 C 136.833,209.5 137.167,209.5 137.5,209.5C 139.833,209.5 142.167,209.5 144.5,209.5C 144.702,211.95 144.369,214.283 143.5,216.5C 141.167,216.5 138.833,216.5 136.5,216.5C 136.5,214.833 136.5,213.167 136.5,211.5C 136.5,210.833 136.5,210.167 136.5,209.5 Z"/></g>
<g><path style="opacity:1" fill="#3e2d2b" d="M 193.5,208.5 C 194.079,211.331 195.412,213.664 197.5,215.5C 198.752,217.001 199.752,218.668 200.5,220.5C 200.586,221.496 200.252,222.329 199.5,223C 193.598,224.559 190.264,222.392 189.5,216.5C 188.178,216.67 187.011,216.337 186,215.5C 185.505,213.527 185.338,211.527 185.5,209.5C 188.459,211.06 191.126,210.727 193.5,208.5 Z"/></g>
<g><path style="opacity:1" fill="#a16d4a" d="M 214.5,211.5 C 218.5,211.5 222.5,211.5 226.5,211.5C 228.767,214.271 231.267,216.938 234,219.5C 234.49,220.793 234.657,222.127 234.5,223.5C 228.515,224.831 223.849,222.998 220.5,218C 216.215,217.883 214.215,215.717 214.5,211.5 Z"/></g>
<g><path style="opacity:1" fill="#b35522" d="M 110.5,205.5 C 112.773,213.162 114.106,213.162 114.5,205.5C 117.167,205.5 119.833,205.5 122.5,205.5C 123.053,209.112 124.053,212.612 125.5,216C 125.588,218.744 124.255,219.91 121.5,219.5C 119.257,218.474 117.257,218.641 115.5,220C 106.046,221.377 102.046,217.21 103.5,207.5C 103.611,206.883 103.944,206.383 104.5,206C 106.473,205.505 108.473,205.338 110.5,205.5 Z"/></g>
<g><path style="opacity:1" fill="#412f2f" d="M 168.5,209.5 C 168.662,211.527 168.495,213.527 168,215.5C 166.113,217.026 165.113,219.026 165,221.5C 162.263,222.61 159.429,222.777 156.5,222C 155.941,221.275 155.608,220.442 155.5,219.5C 157.175,216.15 158.842,212.816 160.5,209.5C 163.104,208.47 165.771,208.47 168.5,209.5 Z"/></g>
<g><path style="opacity:1" fill="#7e6a5c" d="M 62.5,216.5 C 63.5,216.833 64.1667,217.5 64.5,218.5C 60.9878,217.945 57.9878,218.612 55.5,220.5C 54.8333,220.5 54.1667,220.5 53.5,220.5C 52.2436,220.096 51.0769,219.429 50,218.5C 48.073,219.861 45.9063,220.694 43.5,221C 42.6198,222.356 42.2865,223.856 42.5,225.5C 41.8419,223.361 40.8419,221.361 39.5,219.5C 47.0385,218.147 54.7052,217.147 62.5,216.5 Z"/></g>
<g><path style="opacity:1" fill="#fcf7e1" d="M 136.5,226.5 C 138.792,226.756 140.959,226.423 143,225.5C 143.498,222.518 143.665,219.518 143.5,216.5C 144.369,214.283 144.702,211.95 144.5,209.5C 142.167,209.5 139.833,209.5 137.5,209.5C 140.39,208.755 143.39,208.088 146.5,207.5C 146.5,209.5 146.5,211.5 146.5,213.5C 147.5,213.5 148.5,213.5 149.5,213.5C 149.5,209.5 149.5,205.5 149.5,201.5C 148.5,201.5 147.5,201.5 146.5,201.5C 146.5,201.167 146.5,200.833 146.5,200.5C 148.117,199.962 149.784,199.629 151.5,199.5C 151.666,204.179 151.499,208.845 151,213.5C 149.301,214.406 147.467,214.739 145.5,214.5C 145.665,218.182 145.499,221.848 145,225.5C 142.257,228.885 139.424,229.218 136.5,226.5 Z"/></g>
<g><path style="opacity:1" fill="#9a664a" d="M 64.5,218.5 C 66.5342,220.365 67.2008,222.532 66.5,225C 61.2829,226.761 57.6162,225.261 55.5,220.5C 57.9878,218.612 60.9878,217.945 64.5,218.5 Z"/></g>
<g><path style="opacity:1" fill="#a26947" d="M 53.5,220.5 C 52.6314,222.717 52.298,225.05 52.5,227.5C 49.8127,227.664 47.146,227.497 44.5,227C 43.5842,226.722 42.9175,226.222 42.5,225.5C 42.2865,223.856 42.6198,222.356 43.5,221C 45.9063,220.694 48.073,219.861 50,218.5C 51.0769,219.429 52.2436,220.096 53.5,220.5 Z"/></g>
<g><path style="opacity:1" fill="#f7d7a3" d="M 136.5,211.5 C 136.5,213.167 136.5,214.833 136.5,216.5C 138.833,216.5 141.167,216.5 143.5,216.5C 143.665,219.518 143.498,222.518 143,225.5C 140.959,226.423 138.792,226.756 136.5,226.5C 135.167,221.5 135.167,216.5 136.5,211.5 Z"/></g>
<g><path style="opacity:1" fill="#dcbaa0" d="M 238.5,215.5 C 241.104,216.53 243.771,216.53 246.5,215.5C 246.364,218.551 246.698,221.551 247.5,224.5C 244.731,228.297 241.564,228.297 238,224.5C 237.195,221.304 237.362,218.304 238.5,215.5 Z"/></g>
<g><path style="opacity:1" fill="#e4c2a6" d="M 249.5,219.5 C 252.785,219.21 255.785,219.877 258.5,221.5C 258.733,223.062 259.4,224.395 260.5,225.5C 257.748,226.512 255.081,227.512 252.5,228.5C 251.542,228.047 250.708,227.381 250,226.5C 249.503,224.19 249.337,221.857 249.5,219.5 Z"/></g>
<g><path style="opacity:1" fill="#785c43" d="M 260.5,225.5 C 260.5,226.5 260.5,227.5 260.5,228.5C 257.833,228.5 255.167,228.5 252.5,228.5C 255.081,227.512 257.748,226.512 260.5,225.5 Z"/></g>
</svg>
